<?xml version="1.0" standalone="no"?>
<!DOCTYPE svg PUBLIC "-//W3C//DTD SVG 1.1//EN" "http://www.w3.org/Graphics/SVG/1.1/DTD/svg11.dtd" >
<svg xmlns="http://www.w3.org/2000/svg" xmlns:xlink="http://www.w3.org/1999/xlink" version="1.1">
<metadata>
Created by FontForge 20170731 at Fri Nov 13 01:19:10 2020
 By Aleksey,,,
Copyright (c) 2020 by Khurasan. All rights reserved.
</metadata>
<defs>
<font id="Alphakind" horiz-adv-x="608" >
  <font-face 
    font-family="Alphakind"
    font-weight="400"
    font-stretch="normal"
    units-per-em="1000"
    panose-1="0 0 0 0 0 0 0 0 0 0"
    ascent="800"
    descent="-200"
    x-height="525"
    cap-height="700"
    bbox="-56 -221.054 1082 969"
    underline-thickness="50"
    underline-position="-150"
    unicode-range="U+000D-2122"
  />
<missing-glyph horiz-adv-x="298" 
 />
    <glyph glyph-name=".notdef" horiz-adv-x="298" 
 />
    <glyph glyph-name=".null" horiz-adv-x="0" 
 />
    <glyph glyph-name="nonmarkingreturn" unicode="&#xd;" horiz-adv-x="298" 
 />
    <glyph glyph-name="NULL" horiz-adv-x="0" 
 />
    <glyph glyph-name="NULL" horiz-adv-x="0" 
 />
    <glyph glyph-name="space" unicode=" " horiz-adv-x="298" 
 />
    <glyph glyph-name="exclam" unicode="!" horiz-adv-x="297" 
d="M235 749v-530h-181v530h181zM148 -3q-19 0 -36 7t-29.5 18.5t-20 27.5t-7.5 34t7.5 34t20 28t29.5 19t36 7t35.5 -7t29 -19t19.5 -28t7 -34t-7 -34t-19.5 -27.5t-29 -18.5t-35.5 -7z" />
    <glyph glyph-name="quotedbl" unicode="&#x22;" horiz-adv-x="404" 
d="M63 750h133l-70 -228h-82zM231 750h133l-70 -228h-82z" />
    <glyph glyph-name="numbersign" unicode="#" horiz-adv-x="742" 
d="M338 634v-68h71v77h180v-77h92v-180h-92v-96h75v-180h-75v-87h-180v87h-71v-104h-180v104h-94v180h94v96h-99v180h99v68h180zM409 290v96h-71v-96h71z" />
    <glyph glyph-name="dollar" unicode="$" horiz-adv-x="495" 
d="M359 482q-40 28 -72 35.5t-48 3t-11.5 -16t38.5 -21.5l34 -10t36 -13q142 -58 121 -210q-6 -45 -30 -76.5t-60 -50.5q-7 -4 -14 -7t-15 -6v-109h-180v111q-40 14 -73 39t-53 62l130 89q12 -23 33.5 -35t41.5 -14q27 -4 40 2t14 16.5t-9 22.5t-30 20q-20 7 -41.5 13.5
t-42 14t-39 16.5t-31.5 21q-33 30 -43.5 68.5t-3 76.5t30.5 72.5t57 56.5q5 3 9.5 5.5t9.5 5.5v110h180v-94q24 -6 49 -14.5t52 -21.5z" />
    <glyph glyph-name="percent" unicode="%" horiz-adv-x="796" 
d="M599 668l-254 -665l-169 65l255 664zM185 729q31 0 58 -12t47 -32t31.5 -47t11.5 -58t-11.5 -58t-31.5 -47t-47 -31.5t-58 -11.5t-58 11.5t-47.5 31.5t-32 47t-11.5 58t11.5 58t32 47t47.5 32t58 12zM185 634q-23 0 -39 -15.5t-16 -38.5t16 -39t39 -16t38.5 16t15.5 39
t-15.5 38.5t-38.5 15.5zM605 299q31 0 58 -12t47.5 -32t32 -47t11.5 -58t-11.5 -58t-32 -47t-47.5 -31.5t-58 -11.5t-58 11.5t-47.5 31.5t-32 47t-11.5 58t11.5 58t32 47t47.5 32t58 12zM605 205q-23 0 -38.5 -16t-15.5 -39t15.5 -39t38.5 -16t39 16t16 39t-16 39t-39 16z
" />
    <glyph glyph-name="ampersand" unicode="&#x26;" horiz-adv-x="696" 
d="M366 588q-9 2 -20 3q-9 1 -21.5 1.5t-26.5 0.5q-39 -2 -63 -20.5t-27.5 -40.5t14.5 -38.5t63 -13.5l92 7l-4 -100l287 4l1 -166l-69 -1q-10 -50 -36 -92t-64 -73t-85.5 -49t-99.5 -19q-58 -3 -108 18t-86 59t-54.5 90.5t-13.5 113.5q3 37 15 65.5t29 50.5
q-22 26 -35.5 59t-15.5 70q-2 50 18 93.5t55 75.5t82 51.5t99 21.5q21 1 39.5 0t32.5 -3q17 -2 31 -4zM360 311l-68 -2q-40 0 -59 -18.5t-22 -42.5t8 -47.5t32 -34.5q21 -10 44.5 -10t45 7.5t41 22.5t33.5 36l-54 -1z" />
    <glyph glyph-name="quotesingle" unicode="'" horiz-adv-x="246" 
d="M63 750h133l-70 -228h-82z" />
    <glyph glyph-name="parenleft" unicode="(" horiz-adv-x="372" 
d="M333 713q0 -1 -18 -34.5t-39.5 -90t-40 -131.5t-19 -158t23 -169.5t86.5 -166.5l-141 -111q-61 78 -94 160.5t-45 164t-7 159.5t19.5 147.5t35 128t39 101.5t32 67l13.5 24z" />
    <glyph glyph-name="parenright" unicode=")" horiz-adv-x="372" 
d="M184 804l13.5 -24t32 -67t39 -101.5t35 -128t19.5 -147.5t-7 -159.5t-45 -164t-94 -160.5l-141 111q63 80 86.5 166.5t23 169.5t-19 158t-40 131.5t-39.5 90t-18 34.5z" />
    <glyph glyph-name="asterisk" unicode="*" horiz-adv-x="261" 
d="M130 602l-45 -59l-37 28l46 58l-58 26l19 41l52 -24v72h2h43h2v-72l52 24l18 -41l-57 -26l44 -58l-35 -28z" />
    <glyph glyph-name="plus" unicode="+" horiz-adv-x="496" 
d="M44 352h138v139h136v-139h138v-134h-138v-121h-136v121h-138v134z" />
    <glyph glyph-name="comma" unicode="," horiz-adv-x="289" 
d="M63 154h179l-116 -228h-82z" />
    <glyph glyph-name="hyphen" unicode="-" horiz-adv-x="428" 
d="M43 360h339v-136h-339v136z" />
    <glyph glyph-name="period" unicode="." horiz-adv-x="334" 
d="M165 6q-21 0 -39.5 8t-32 21.5t-21.5 31.5t-8 39t8 39.5t21.5 32t32 21.5t39.5 8t39.5 -8t32 -21.5t21.5 -32t8 -39.5t-8 -39t-21.5 -31.5t-32 -21.5t-39.5 -8z" />
    <glyph glyph-name="slash" unicode="/" horiz-adv-x="430" 
d="M409 707l-253 -695l-127 46l253 695z" />
    <glyph glyph-name="zero" unicode="0" horiz-adv-x="599" 
d="M298 747q58 0 108.5 -32t86.5 -89q32 -51 51 -116.5t19 -140.5q0 -74 -19 -140t-51 -116q-36 -56 -86.5 -88.5t-108.5 -32.5t-108.5 32.5t-86.5 88.5q-32 50 -51.5 116t-19.5 140q0 75 19.5 140.5t51.5 116.5q36 57 86.5 89t108.5 32zM365 520q-14 21 -31 33.5t-36 12.5
t-36 -12.5t-31 -33.5q-18 -29 -29 -67.5t-11 -83.5t11 -83t29 -67q14 -23 31 -35.5t36 -12.5t36 12.5t31 35.5q18 29 28.5 67t10.5 83t-10.5 83.5t-28.5 67.5z" />
    <glyph glyph-name="one" unicode="1" horiz-adv-x="320" 
d="M21 714l118 32h141v-749h-180v540l-31 -10z" />
    <glyph glyph-name="two" unicode="2" horiz-adv-x="574" 
d="M36 480l0.5 16.5t6 42.5t17.5 57t35 60t59 53t90 35q43 10 82 6.5t72 -17.5q52 -22 88 -67.5t46 -99.5q9 -41 4.5 -86.5t-24.5 -91.5q-14 -34 -35 -63t-45.5 -53.5t-52.5 -45.5t-55 -40h186v-180h-469v134l2 12q3 25 15.5 46t31.5 39.5t43.5 36t52.5 35.5
q23 15 47.5 32.5t46.5 36t39.5 38t26.5 39.5q9 23 11 41.5t0 33.5q-6 27 -29 36t-47.5 2.5t-44.5 -28.5t-20 -56z" />
    <glyph glyph-name="three" unicode="3" horiz-adv-x="529" 
d="M97 741l23 2t58.5 1.5t77.5 -6t80 -20.5t67 -41.5t38 -68.5q8 -41 -5.5 -76t-37.5 -64q39 -28 61.5 -66.5t29.5 -81t-1 -87.5t-31 -87q-36 -69 -89.5 -104.5t-113.5 -41.5t-121.5 17t-113.5 73l122 139q18 -18 43 -29.5t49 -12.5q29 0 49.5 16.5t27 39.5t-2.5 47.5
t-40 39.5q-14 8 -33.5 12.5t-43.5 4.5l-17 133q41 16 62.5 32t21.5 29.5t-21 21.5t-64 7q-15 -1 -28.5 -1h-24.5q-12 0 -22 -1v173z" />
    <glyph glyph-name="four" unicode="4" horiz-adv-x="490" 
d="M216 749v-389h44v267h179v-267h21v-183h-21v-178h-179v178h-225v572h181z" />
    <glyph glyph-name="five" unicode="5" horiz-adv-x="527" 
d="M425 567h-210v-52q41 -5 83.5 -17t80 -34t66 -56t41.5 -83q9 -35 8 -68t-11 -63q-15 -44 -44.5 -77t-67.5 -55.5t-83 -35.5t-90.5 -16.5t-89.5 1t-81 16.5l56 171q24 -7 56.5 -10t65 1.5t59.5 17.5t41 37q16 28 -8 55.5t-87 37.5q-29 4 -60 5.5t-56 0.5t-41.5 -2
l-16.5 -1l-1 408h390v-181z" />
    <glyph glyph-name="six" unicode="6" horiz-adv-x="545" 
d="M427 606q-13 -10 -26 -21q-24 -19 -58 -52q67 -23 108 -76t54 -121q11 -70 -1.5 -134.5t-57.5 -115.5q-40 -46 -92.5 -65t-105 -13t-99.5 36.5t-77 82.5q-33 57 -39.5 126.5t8.5 129.5q10 46 34.5 91t55 85.5t63.5 75t60 60t45 40l18 14.5zM283 187q18 3 28.5 16.5t15 31
t4 36.5t-2.5 33q-6 32 -22 46t-34 13t-35 -15t-24 -38q-5 -15 -4 -37.5t9 -43t24 -33.5t41 -9z" />
    <glyph glyph-name="seven" unicode="7" horiz-adv-x="498" 
d="M40 740h436l-15 -186l-17 -28.5t-42 -75t-55 -105t-57 -120t-47 -120t-25 -103.5l-182 23q7 56 29.5 125t52.5 139.5t63.5 137t62.5 118.5h-204v195z" />
    <glyph glyph-name="eight" unicode="8" horiz-adv-x="555" 
d="M277 184q14 0 26.5 6t21.5 15.5t14.5 22t5.5 25.5q0 29 -21 48t-47 19q-28 0 -47.5 -20.5t-19.5 -46.5q0 -14 5.5 -26t15 -22t21.5 -15.5t25 -5.5zM277 748q40 0 75.5 -15.5t61 -42t40.5 -61.5t15 -74q0 -30 -8.5 -58.5t-24.5 -51.5q43 -38 66 -86.5t23 -105.5
q0 -53 -20.5 -99t-55 -80t-79.5 -53t-93 -19q-54 0 -99.5 21t-78.5 56.5t-51.5 80.5t-18.5 93q0 57 23.5 108t66.5 84q-16 23 -24.5 51.5t-8.5 58.5q0 40 15.5 75.5t41.5 61.5t60.5 41t73.5 15zM277 588q-16 0 -24 -9.5t-8 -23.5t9.5 -23.5t22.5 -9.5q14 0 23.5 10t9.5 23
q0 16 -9.5 24.5t-23.5 8.5z" />
    <glyph glyph-name="nine" unicode="9" horiz-adv-x="541" 
d="M112 129q1 1 26 21.5t59 55.5q-68 24 -109.5 77.5t-54.5 124.5q-10 54 -4 105q5 46 21.5 85t41.5 68q40 47 92.5 66.5t105.5 13t100 -37.5t77 -85q25 -43 35.5 -97.5t3.5 -117.5q-2 -11 -3.5 -22.5t-3.5 -24.5q-10 -48 -34.5 -94.5t-55 -88.5t-63.5 -78t-60 -62
t-45 -40.5l-18 -14.5zM256 561q-18 -3 -28.5 -17t-15 -32t-4.5 -37.5t2 -34.5q6 -32 22.5 -46.5t35 -13.5t35 14.5t23.5 37.5q4 17 3.5 41t-8.5 44.5t-24 34t-41 9.5z" />
    <glyph glyph-name="colon" unicode=":" horiz-adv-x="317" 
d="M165 324q-21 0 -39.5 8t-32 21.5t-21.5 31.5t-8 39t8 39.5t21.5 32t32 21.5t39.5 8t39.5 -8t32 -21.5t21.5 -32t8 -39.5t-8 -39t-21.5 -31.5t-32 -21.5t-39.5 -8zM165 42q-21 0 -39.5 8t-32 21.5t-21.5 31.5t-8 39t8 39.5t21.5 32t32 21.5t39.5 8t39.5 -8t32 -21.5
t21.5 -32t8 -39.5t-8 -39t-21.5 -31.5t-32 -21.5t-39.5 -8z" />
    <glyph glyph-name="semicolon" unicode=";" horiz-adv-x="317" 
d="M63 200h179l-116 -228h-82zM165 324q-21 0 -39.5 8t-32 21.5t-21.5 31.5t-8 39t8 39.5t21.5 32t32 21.5t39.5 8t39.5 -8t32 -21.5t21.5 -32t8 -39.5t-8 -39t-21.5 -31.5t-32 -21.5t-39.5 -8z" />
    <glyph glyph-name="less" unicode="&#x3c;" horiz-adv-x="525" 
d="M477 419l-190 -100l182 -119l-99 -151l-322 211v136l344 183z" />
    <glyph glyph-name="equal" unicode="=" horiz-adv-x="413" 
d="M41 447h332v-136h-332v136zM41 275h332v-135h-332v135z" />
    <glyph glyph-name="greater" unicode="&#x3e;" horiz-adv-x="525" 
d="M133 579l344 -183v-136l-322 -211l-99 151l182 119l-190 100z" />
    <glyph glyph-name="question" unicode="?" horiz-adv-x="522" 
d="M31 748q72 10 132 8.5t108 -12.5t84 -30t61 -43q52 -51 60 -118q3 -32 -5 -63.5t-25 -60.5q-28 -45 -80.5 -82t-127.5 -54v-62h-180v218l87 3q77 3 111 25.5t30 48t-42 45t-104 16.5q-19 -1 -39 -2.5t-43 -4.5zM138 -4q-21 0 -39 7.5t-31.5 20t-21.5 30t-8 37.5t8 37.5
t21.5 30.5t31.5 20.5t39 7.5t39.5 -7.5t32 -20.5t21.5 -30.5t8 -37.5t-8 -37.5t-21.5 -30t-32 -20t-39.5 -7.5z" />
    <glyph glyph-name="at" unicode="@" horiz-adv-x="796" 
d="M548 556v-241q0 -4 0.5 -11t2.5 -13.5t5 -11.5t8 -4q19 2 30 20.5t17 42.5t7.5 49t0.5 39q-3 40 -16 78.5t-36.5 68.5t-57 48.5t-78.5 19.5q-62 2 -111.5 -20.5t-84 -61.5t-52 -91t-15.5 -110q4 -67 30.5 -113t70 -73t99.5 -35.5t118 0.5l19 -134q-93 -14 -176.5 3
t-147.5 61.5t-103.5 116t-43.5 167.5q-4 87 23.5 165.5t81 137t129 91.5t166.5 31q72 -2 129.5 -30t98 -74.5t64 -108t28.5 -128.5q3 -45 -4.5 -94.5t-28 -92t-55.5 -72.5t-88 -35q-31 -3 -54.5 3.5t-41 18.5t-29.5 28.5t-20 33.5q-61 -5 -103 12t-68 48q-20 23 -29.5 50.5
t-7.5 56.5q2 58 40 103q32 39 86.5 59t129.5 2h67zM401 428q-18 -5 -29 -15.5t-12.5 -22t8 -21t32.5 -10.5z" />
    <glyph glyph-name="A" unicode="A" 
d="M8 37l199 729h246l150 -710l-174 -36l-25 112h-184l-39 -142zM366 312l-43 203l-55 -203h98z" />
    <glyph glyph-name="B" unicode="B" horiz-adv-x="579" 
d="M220 764q52 2 101 -9.5t88.5 -33.5t66.5 -53t36 -67.5t-3 -78t-51 -84.5q80 -61 86 -162q4 -69 -26.5 -120.5t-80.5 -84.5t-112.5 -49t-123.5 -14l-162 2v756zM220 187q48 1 80 13t48 29t16 35.5t-16 33t-48 21t-80 0.5v-132zM218 499q45 -4 74.5 10t34 32t-19.5 32
t-87 11z" />
    <glyph glyph-name="C" unicode="C" horiz-adv-x="654" 
d="M449 505l-6 10t-20.5 21t-38 18t-58.5 3q-47 -6 -73 -40.5t-35.5 -81t-4.5 -96t21 -84.5t42 -57t61 -21q37 1 57.5 17t30.5 34.5t12 34l2 15.5l180 -8l-2 -20t-10.5 -49.5t-25.5 -64t-47.5 -65t-77 -51t-112.5 -22.5q-50 -2 -92.5 11t-77 37.5t-61 59t-44.5 75.5
q-23 51 -32 110t-4.5 118t23 114t52 100t82.5 75t113 38q56 7 101 -1.5t79 -25.5t58.5 -39t40 -42t22.5 -33.5l7 -13.5z" />
    <glyph glyph-name="D" unicode="D" horiz-adv-x="613" 
d="M221 740q24 -2 65.5 -13t87 -34.5t89.5 -61.5t73 -94q19 -35 28.5 -74t9.5 -78q0 -68 -23.5 -122t-60 -95t-79.5 -70t-82 -47t-69 -26.5t-39 -7.5h-180v723h180zM221 216q52 6 89 31.5t57 60t22.5 73.5t-15 72.5t-55.5 56.5t-98 26v-320z" />
    <glyph glyph-name="E" unicode="E" horiz-adv-x="493" 
d="M456 546l-237 2v-129h146v-180h-146v-68h231v-179h-412v735l418 -3v-178z" />
    <glyph glyph-name="F" unicode="F" horiz-adv-x="468" 
d="M434 549l-211 -3v-115l148 -1l-1 -187l-147 2v-240h-183v729h195.5t194.5 2z" />
    <glyph glyph-name="G" unicode="G" horiz-adv-x="687" 
d="M464 523l-3 3q-22 17 -47.5 24t-52.5 5q-39 -3 -67.5 -22.5t-47 -49.5t-26.5 -66t-7 -71q2 -40 13 -75.5t34 -60.5q22 -24 52 -33t59 -4.5t54 21.5t38 46l-119 -5l-4 180l307 9v-90q1 -66 -15 -126t-49.5 -106t-86 -73.5t-124.5 -29.5q-76 -2 -137.5 23.5t-105.5 72
t-68.5 109.5t-26.5 136q-2 72 18 140.5t60 123t99 90t135 41.5q60 5 119.5 -13t107.5 -57q6 -4 8 -7z" />
    <glyph glyph-name="H" unicode="H" horiz-adv-x="631" 
d="M216 724v-427h179v434h179v-760h-179v145h-179v-112h-180v720h180z" />
    <glyph glyph-name="I" unicode="I" horiz-adv-x="263" 
d="M219 700v-702h-180v702h180z" />
    <glyph glyph-name="J" unicode="J" horiz-adv-x="550" 
d="M513 740v-463q0 -73 -21 -127t-55.5 -90t-78 -54.5t-89 -19.5t-88.5 15t-76 48t-52.5 81t-16.5 113l179 -7q-1 -26 7.5 -44t22 -26.5t29 -7t29 15t21.5 39t7 64.5v463h182z" />
    <glyph glyph-name="K" unicode="K" horiz-adv-x="552" 
d="M212 740v-191l167 184l134 -121l-211 -231l217 -289l-143 -108l-164 219v-187h-179v724h179z" />
    <glyph glyph-name="L" unicode="L" horiz-adv-x="430" 
d="M219 746v-570h174v-179h-354v749h180z" />
    <glyph glyph-name="M" unicode="M" horiz-adv-x="808" 
d="M31 27l45 728l203 -5l130 -397l116 399l193 17l50 -728l-180 -12l-15 242l-101 -249l-118 -2l-125 302l-18 -305z" />
    <glyph glyph-name="N" unicode="N" horiz-adv-x="651" 
d="M36 38v646h179l219 -352v368h179v-687h-179l-219 310v-285h-179z" />
    <glyph glyph-name="O" unicode="O" horiz-adv-x="754" 
d="M374 758q73 0 136 -30t111 -84q45 -51 70 -117.5t25 -143.5q0 -75 -25 -142t-70 -117q-48 -54 -111 -84.5t-136 -30.5q-72 0 -134.5 30.5t-110.5 84.5q-45 50 -71 117t-26 142q0 77 26 143.5t71 117.5q48 54 110.5 84t134.5 30zM486 525q-23 24 -51 38t-61 14
q-32 0 -60.5 -14t-49.5 -38q-24 -27 -37.5 -63.5t-13.5 -78.5t13.5 -77.5t37.5 -62.5q21 -25 49.5 -39t60.5 -14q33 0 61 14t51 39q23 27 36.5 62.5t13.5 77.5t-13.5 78.5t-36.5 63.5z" />
    <glyph glyph-name="P" unicode="P" horiz-adv-x="597" 
d="M217 750q87 7 152 -17t108 -68.5t64.5 -103t21 -120.5t-22.5 -121.5t-65 -106t-107.5 -74t-150.5 -25.5v-102h-179v738h179zM216 282q50 4 86 28t56.5 57t23 70.5t-14 69t-54 52t-98.5 19.5z" />
    <glyph glyph-name="Q" unicode="Q" horiz-adv-x="756" 
d="M373 758q72 0 135 -30t111 -84q45 -51 70.5 -117.5t25.5 -143.5q0 -75 -25.5 -142t-70.5 -117q-2 -3 -5.5 -6t-5.5 -6l40 -76l-140 -92l-41 80q-47 -15 -94 -15q-72 0 -135.5 30.5t-110.5 84.5q-45 50 -71 117t-26 142q0 77 26 143.5t71 117.5q47 54 110.5 84t135.5 30z
M493 327l19 -40q11 21 16.5 45.5t5.5 50.5q0 36 -11 70.5t-32 62t-51 44.5t-67 17q-39 0 -69 -18t-50.5 -46t-31.5 -62.5t-11 -67.5q0 -42 13.5 -77.5t37.5 -62.5q23 -25 51 -39t60 -14h3l-23 44z" />
    <glyph glyph-name="R" unicode="R" horiz-adv-x="539" 
d="M222 381q33 10 57 28.5t37 40.5t15 45.5t-9 44t-35.5 35.5t-64.5 20v-214zM349 242q20 -17 55 -29t90 -8l10 -180q-52 -3 -95 3.5t-78 19.5t-62 31t-47 38v-94h-182v749q51 1 104.5 0.5t105 -7t98 -22.5t82 -45.5t57 -75.5t23.5 -113q1 -42 -10 -81.5t-32 -74t-51.5 -63
t-67.5 -48.5z" />
    <glyph glyph-name="S" unicode="S" horiz-adv-x="556" 
d="M372 516q-7 10 -18 19q-10 8 -26.5 14t-41.5 6q-11 0 -22.5 -4.5t-16 -11t0.5 -15t28 -16.5q9 -4 18 -7t17 -8q42 -18 85 -45.5t72 -65.5q31 -40 42.5 -83.5t8 -86t-21.5 -81t-47 -69t-68 -50.5t-84 -24q-31 -3 -62 1t-61 17q-50 20 -88.5 61t-57.5 106l171 57
q9 -29 32.5 -41.5t49.5 -10.5q17 1 34 10.5t19 29.5q1 19 -8 34.5t-23 28t-30.5 22t-31.5 15.5q-8 3 -14 5.5t-12 4.5q-67 26 -104 67t-48 87t1 92.5t42.5 84.5t76 61.5t102.5 24.5q64 1 109.5 -20t75 -46.5t43.5 -46.5l14 -21z" />
    <glyph glyph-name="T" unicode="T" horiz-adv-x="500" 
d="M351 578v-560h-179v561l-153 1l1 180l460 -2l-1 -181z" />
    <glyph glyph-name="U" unicode="U" horiz-adv-x="644" 
d="M235 690l-4 -22.5t-9 -59.5t-9.5 -84t-6 -95.5t2 -95.5t14.5 -83.5t31 -58.5t52 -21q29 0 49.5 16.5t35 43.5t22.5 62.5t11 73.5q4 50 3 102t-4.5 99t-8.5 85.5t-9 61.5l177 29q4 -26 10 -69t10.5 -95.5t5.5 -112t-5 -117.5q-7 -70 -25 -134.5t-52.5 -113.5t-87.5 -79
t-129 -31q-73 -2 -123 29t-81.5 82t-47 116.5t-20.5 134.5t-2.5 135t8 118t11 84t5.5 33z" />
    <glyph glyph-name="V" unicode="V" horiz-adv-x="619" 
d="M190 751l120 -428l119 438l173 -45l-192 -723h-194l-199 711z" />
    <glyph glyph-name="W" unicode="W" horiz-adv-x="916" 
d="M193 813l116 -388l110 313l132 8l84 -308l84 329l174 -45l-187 -717h-152l-74 366l-93 -366h-141l-226 758z" />
    <glyph glyph-name="X" unicode="X" horiz-adv-x="613" 
d="M206 731l106 -184l121 175l148 -99l-169 -249l168 -292l-156 -90l-125 215l-127 -188l-149 103l177 259l-151 260z" />
    <glyph glyph-name="Y" unicode="Y" horiz-adv-x="674" 
d="M179 758l164 -271l150 275l158 -86l-216 -396l-2 -277l-179 1l2 279l-232 380z" />
    <glyph glyph-name="Z" unicode="Z" horiz-adv-x="617" 
d="M69 711l519 9l-9 -161l-287 -367h246v-179h-505v167l300 357l-262 -5z" />
    <glyph glyph-name="bracketleft" unicode="[" horiz-adv-x="352" 
d="M308 594h-81v-548h68v-180h-249v908h262v-180z" />
    <glyph glyph-name="backslash" unicode="\" horiz-adv-x="430" 
d="M156 753l253 -695l-127 -46l-253 695z" />
    <glyph glyph-name="bracketright" unicode="]" horiz-adv-x="352" 
d="M43 774h262v-908h-249v180h68v548h-81v180z" />
    <glyph glyph-name="asciicircum" unicode="^" horiz-adv-x="370" 
d="M49 543l109 207h77l91 -217l-82 -35l-52 124l-64 -122z" />
    <glyph glyph-name="underscore" unicode="_" horiz-adv-x="588" 
d="M37 135h510v-135h-510v135z" />
    <glyph glyph-name="grave" unicode="`" horiz-adv-x="235" 
d="M134 741l68 -118l-66 -6l-106 128z" />
    <glyph glyph-name="a" unicode="a" horiz-adv-x="560" 
d="M514 13h-180v17q-63 -11 -114 0t-89 40q-48 37 -71 94.5t-22 118.5t25.5 117.5t70.5 90.5q38 29 87 44.5t102 20.5q35 3 67.5 2t58.5 -3t43.5 -4.5t23.5 -3.5zM334 367q-49 4 -78.5 -10t-41.5 -36t-8.5 -47t20 -42.5t45 -23.5t65.5 10z" />
    <glyph glyph-name="b" unicode="b" horiz-adv-x="563" 
d="M215 753v-212q111 -5 182 -44t104.5 -95.5t30.5 -122t-40.5 -124t-107.5 -100.5t-170 -51l-179 -1v750h180zM215 188q60 9 96.5 35.5t40.5 56t-28 53.5t-109 28v-173z" />
    <glyph glyph-name="c" unicode="c" horiz-adv-x="583" 
d="M352 402q-1 19 -15 29t-33.5 8.5t-40 -16.5t-33.5 -46q-6 -13 -9.5 -32t-4.5 -40t0.5 -43t6.5 -41q9 -39 31.5 -56t46.5 -16.5t43.5 16.5t22.5 44l176 -12q-2 -53 -24.5 -94t-58.5 -69t-81.5 -42.5t-93.5 -13.5q-76 2 -129 40.5t-83 97.5t-37 130.5t7.5 138.5t51.5 122
t95 81q48 22 104 24t106 -17.5t86 -61t43 -105.5z" />
    <glyph glyph-name="d" unicode="d" horiz-adv-x="575" 
d="M528 778v-794h-179q-77 -3 -135 22t-96.5 68t-57.5 99t-18.5 114.5t19.5 114.5t57.5 99t96 68t134.5 22v187h179zM349 398q-40 1 -66 -16t-39 -42.5t-12.5 -55.5t13.5 -55t39 -40t65 -12v221z" />
    <glyph glyph-name="e" unicode="e" horiz-adv-x="541" 
d="M359 316q1 37 -20.5 59t-49.5 23.5t-54 -19t-32 -66.5zM428 187h-222q6 -24 24.5 -34.5t39.5 -10.5t38.5 9t20.5 25l153 -33q-12 -60 -49.5 -98.5t-86.5 -54.5t-103.5 -9t-100 39t-75.5 88.5t-31 140.5q0 66 19.5 118.5t52 90.5t74 60.5t84.5 27.5t85 -8.5t74.5 -47
t53 -88t21.5 -131.5q0 -20 -1 -41t-5 -43h-66z" />
    <glyph glyph-name="f" unicode="f" horiz-adv-x="397" 
d="M31 495h33q-3 85 19 137t57 80.5t77 38.5t78 10t60.5 -4.5l24.5 -4.5l-39 -176l-16 2.5t-35 -2.5t-33.5 -23t-12.5 -58v-2h108v-180l-100 1q2 -63 3 -117.5t2 -96.5q1 -48 1 -90h-180q0 42 -1 90q-1 42 -2 96.5t-3 117.5h-42z" />
    <glyph glyph-name="g" unicode="g" horiz-adv-x="561" 
d="M516 544v-485q0 -52 -16 -101.5t-47 -89t-75 -64t-100 -25.5q-55 -1 -97.5 16.5t-72.5 49.5t-47 76t-21 97l165 14q3 -38 22.5 -57t42 -19t41 18.5t21.5 56.5q-80 -3 -139.5 19t-97.5 60t-54.5 87.5t-11 100.5t32.5 99.5t76 84.5t120 55t165 11zM335 376q-43 1 -71 -11
t-42 -31.5t-13.5 -42t14.5 -41.5t42 -30t70 -8v164z" />
    <glyph glyph-name="h" unicode="h" horiz-adv-x="568" 
d="M220 791v-275q42 0 93.5 -7t97 -31t78.5 -68.5t38 -118.5l1 -7v-311h-180v270q-3 30 -16 47.5t-31.5 25.5t-40 9.5t-40.5 0.5v-366h-180v831h180z" />
    <glyph glyph-name="i" unicode="i" horiz-adv-x="269" 
d="M223 527v-496h-180v496h180zM134 562q-17 0 -32.5 7t-27.5 19.5t-19 29t-7 34.5q0 19 7 36t19 29.5t27.5 20t32.5 7.5q18 0 33.5 -7.5t27 -20t18.5 -29.5t7 -36q0 -18 -7 -34.5t-18.5 -29t-27 -19.5t-33.5 -7z" />
    <glyph glyph-name="j" unicode="j" horiz-adv-x="276" 
d="M224 495v-452q0 -11 -1 -36.5t-9 -57t-25 -64t-48.5 -58t-79.5 -39t-117 -5.5l18 178q45 -5 64 16.5t18 65.5v452h180zM135 546q-18 0 -33.5 6.5t-27.5 18.5t-19 27.5t-7 33.5t7 33.5t19 27.5t27.5 18.5t33.5 6.5q36 0 61.5 -25t25.5 -61t-25.5 -61t-61.5 -25z" />
    <glyph glyph-name="k" unicode="k" horiz-adv-x="558" 
d="M228 790v-328l174 154l114 -149l-191 -167l195 -210l-129 -133l-163 175v-120h-179v778h179z" />
    <glyph glyph-name="l" unicode="l" horiz-adv-x="328" 
d="M219 742v-510q1 -6 1.5 -18.5t5.5 -24t17 -19t36 -2.5l12 -191q-62 -5 -105.5 9t-71.5 38t-43.5 55t-22.5 61t-8 55t0 37v510h179z" />
    <glyph glyph-name="m" unicode="m" horiz-adv-x="849" 
d="M513 31h-181v289q0 36 -17 53.5t-38 18.5t-39 -16t-21 -50v-295h-180v515h147q74 28 136.5 19.5t107.5 -45.5q27 18 51.5 27.5t45.5 14t37 5t25 0.5q49 0 89.5 -17.5t69.5 -50t45.5 -78.5t16.5 -101v-289h-180v289q0 36 -17 53.5t-38 18.5t-39 -16t-21 -50v-295z" />
    <glyph glyph-name="n" unicode="n" horiz-adv-x="577" 
d="M225 23h-180v533h139q8 5 16 8q56 22 112 23.5t102.5 -19.5t78.5 -65.5t40 -113.5v-8v-346h-179v326q0 47 -21 67.5t-46 18t-45 -26t-17 -63.5v-334z" />
    <glyph glyph-name="o" unicode="o" horiz-adv-x="634" 
d="M318 584q60 0 111.5 -24t89 -64t58.5 -91t21 -105q0 -59 -22.5 -111t-61 -91t-89.5 -62t-107 -23q-60 0 -111.5 24.5t-88.5 65t-58 92t-21 105.5q0 58 22.5 110t61 90.5t89 61t106.5 22.5zM318 405q-21 0 -39.5 -9t-31.5 -24t-20.5 -34t-7.5 -38q0 -21 7.5 -40t21 -34
t31.5 -23.5t39 -8.5q22 0 40.5 9t31.5 24t20.5 34t7.5 39q0 21 -8 40t-21.5 33.5t-32 23t-38.5 8.5z" />
    <glyph glyph-name="p" unicode="p" horiz-adv-x="589" 
d="M217 158q44 -2 76 14.5t49.5 42t20.5 55.5t-12 54t-48 37t-86 6v-209zM217 -202h-180v759h153q84 15 148 -3.5t107.5 -58.5t66.5 -96t25 -115.5t-16.5 -118t-58.5 -103.5t-101 -71.5t-144 -22.5v-170z" />
    <glyph glyph-name="q" unicode="q" horiz-adv-x="582" 
d="M355 419q-40 -9 -68.5 -28.5t-44 -43t-17 -49t12.5 -46.5t43.5 -35t76.5 -15zM356 29q-90 -2 -153.5 22.5t-102.5 65.5t-53.5 93t-7 106t37.5 105t79.5 89.5t119 59.5t156.5 15l106 -3v-773h-182v220z" />
    <glyph glyph-name="r" unicode="r" horiz-adv-x="506" 
d="M224 565v-9q24 8 56.5 13t67.5 0t69 -22t61 -52l-104 -146q-27 26 -53.5 32.5t-48 -2t-35 -30.5t-13.5 -53v-283h-181v552h181z" />
    <glyph glyph-name="s" unicode="s" horiz-adv-x="482" 
d="M352 385q-40 30 -72 37.5t-48 3t-11.5 -16.5t38.5 -22q43 -13 83 -32t68 -54q52 -64 40 -162q-7 -48 -31 -82t-59 -54q-43 -23 -92 -26.5t-95 10t-85 42t-62 70.5l129 94q9 -21 29.5 -37.5t42.5 -18.5q24 -3 37 4.5t15.5 19.5t-6 24.5t-28.5 20.5q-29 11 -56.5 21
t-52 21.5t-45 27t-33.5 38.5q-17 30 -21 62t3 63t23.5 59t39.5 50q34 32 76.5 44.5t86 10t86 -15.5t78.5 -32z" />
    <glyph glyph-name="t" unicode="t" horiz-adv-x="421" 
d="M256 666v-112h106v-179h-106v-146q1 -19 11 -32q8 -11 26.5 -17.5t53.5 1.5l43 -174q-79 -20 -133.5 -11t-89.5 33.5t-54 58.5t-27 65.5t-9.5 53.5l-1.5 22v146h-46v179h46v112h181z" />
    <glyph glyph-name="u" unicode="u" horiz-adv-x="543" 
d="M220 525v-256q1 -47 17 -68t34 -19.5t32 24.5t13 65v242h181l-1 -254q2 -85 -31.5 -144t-84.5 -90.5t-111 -34t-111.5 25.5t-85 87t-32.5 151v271h180z" />
    <glyph glyph-name="v" unicode="v" horiz-adv-x="531" 
d="M200 599l65 -218l72 227l171 -52l-182 -546h-124l-175 537z" />
    <glyph glyph-name="w" unicode="w" horiz-adv-x="776" 
d="M200 601l84 -295l71 181l93 -2l55 -154l68 234l172 -46l-134 -505l-143 -13l-74 203l-75 -186h-154l-139 539z" />
    <glyph glyph-name="x" unicode="x" horiz-adv-x="568" 
d="M40 84l133 214l-148 248l155 91l99 -168l92 146l155 -93l-142 -227l126 -212l-155 -93l-80 133l-84 -134z" />
    <glyph glyph-name="y" unicode="y" horiz-adv-x="576" 
d="M557 559l-128 -490h-1q-1 -5 -10 -31t-28.5 -58.5t-50.5 -64t-76.5 -47.5t-107.5 -9t-142 51l87 157q31 -17 55 -20.5t41 2t28 16.5t18 22.5t9.5 20l2.5 8.5v1l2 5q-53 5 -89.5 20.5t-60.5 37.5t-37.5 47.5t-19.5 49.5t-7.5 44t-0.5 30h-1v208h179v-208q-1 -26 10.5 -43
t28 -19t33.5 12.5t27 50.5l57 217z" />
    <glyph glyph-name="z" unicode="z" horiz-adv-x="529" 
d="M66 583l429 -14l-10 -157l-176 -209l162 -6l4 -180h-443l3 171l214 215l-192 1z" />
    <glyph glyph-name="braceleft" unicode="{" horiz-adv-x="428" 
d="M372 627q-32 4 -44.5 -5t-15 -26t-0.5 -41t0 -49q-4 -50 -16 -99.5t-40 -88.5q28 -39 40 -89t16 -99q2 -26 0 -49.5t0.5 -41t15 -26.5t44.5 -4l16 -148l-18 -2t-45.5 -0.5t-59 7.5t-59.5 22.5t-47.5 45.5t-21.5 75q-2 31 -1 69t-6 71.5t-26.5 57t-61.5 26.5v169
q42 3 61.5 27.5t26.5 58t6 71.5t1 69q2 46 21.5 75t47.5 45t59.5 22.5t59 7.5t45.5 -1l18 -2z" />
    <glyph glyph-name="bar" unicode="|" horiz-adv-x="263" 
d="M219 746v-778h-180v778h180z" />
    <glyph glyph-name="braceright" unicode="}" horiz-adv-x="428" 
d="M42 775l18 2t45.5 1t59 -7.5t59.5 -22.5t47.5 -45t21.5 -75q2 -31 1 -69t6 -71.5t26.5 -58t61.5 -27.5v-169q-42 -3 -61.5 -26.5t-26.5 -57t-6 -71.5t-1 -69q-2 -46 -21.5 -75t-47.5 -45.5t-59.5 -22.5t-59 -7.5t-45.5 0.5l-18 2l16 148q32 -5 44.5 4t15 26.5t0.5 41
t0 49.5q4 49 16 99t40 89q-28 39 -40 88.5t-16 99.5q-2 25 0 49t-0.5 41t-15 26t-44.5 5z" />
    <glyph glyph-name="asciitilde" unicode="~" horiz-adv-x="745" 
d="M41 203l9.5 16.5t26.5 41t41 53t53.5 52.5t63 39.5t70 14t75.5 -23.5t78 -73q11 -16 25.5 -6t27.5 28q15 21 30 53l163 -74l-8 -16.5t-23 -40.5t-36 -52t-47.5 -51.5t-58 -38.5t-66 -13t-73 25t-78.5 76q-7 9 -15.5 10t-17.5 -4t-18.5 -14.5t-18.5 -20.5q-21 -26 -43 -66
z" />
    <glyph glyph-name="exclamdown" unicode="&#xa1;" horiz-adv-x="297" 
d="M235 -72.9541v529.968h-181v-529.968h181zM148 679q-19 0 -36 -7q-17 -6.99902 -29.5 -18.499q-12.5 -11.499 -20 -27.498t-7.5 -33.998t7.5 -33.998t20 -27.998t29.5 -18.999q17 -6.99902 36 -6.99902t35.5 6.99902q16.5 7 29 18.999t19.5 27.998t7 33.998t-7 33.998
t-19.5 27.498q-12.5 11.5 -29 18.499q-16.5 7 -35.5 7z" />
    <glyph glyph-name="cent" unicode="&#xa2;" horiz-adv-x="583" 
d="M350 441q-1 18 -15 27t-33.5 7.5t-39.5 -15t-33 -41.5q-6 -12 -9.5 -29t-4.5 -36.5t0.5 -39.5t6.5 -38q9 -35 31.5 -51t46 -15.5t43 15t22.5 40.5l175 -11q-3 -67 -43 -113t-99 -68v-72h-179v62q-60 16 -100.5 57t-61.5 94.5t-23 114t14.5 116t52 100t88.5 66.5
q14 6 30 11v90h179v-91q46 -16 80 -49.5t44 -85.5z" />
    <glyph glyph-name="sterling" unicode="&#xa3;" horiz-adv-x="525" 
d="M366 523q-16 3 -27 -2t-19 -18.5t-10 -43.5q-1 -15 -1 -30v-30h119v-113h-120q-1 -27 -1.5 -53.5t-3.5 -50.5h182v-180q-84 0 -143 -0.5t-100.5 -1t-69.5 -0.5h-49.5t-41 0.5t-43.5 1.5v180h85q2 9 3.5 37t2.5 67h-56v113h56q1 17 1 34t1 34q3 77 25.5 124t53.5 72.5
t67 34t66 8t50.5 -5l20.5 -4.5z" />
    <glyph glyph-name="yen" unicode="&#xa5;" horiz-adv-x="674" 
d="M179 758l164 -271l150 275l158 -86l-175 -321h78v-125h-120v-37h120v-125h-121v-65l-179 1v64h-133v125h134v37h-134v125h91l-188 308z" />
    <glyph glyph-name="dieresis" unicode="&#xa8;" horiz-adv-x="212" 
d="M65 673q-13 0 -21.5 8.5t-8.5 21.5t8.5 21.5t21.5 8.5q12 0 20.5 -8.5t8.5 -21.5t-8.5 -21.5t-20.5 -8.5zM140 673q-12 0 -21 8.5t-9 21.5t9 21.5t21 8.5t21 -8.5t9 -21.5t-9 -21.5t-21 -8.5z" />
    <glyph glyph-name="guillemotleft" unicode="&#xab;" horiz-adv-x="902" 
d="M477 419l-190 -100l182 -119l-99 -151l-322 211v136l344 183zM865 405l-190 -100l182 -119l-99 -151l-322 211v136l344 183z" />
    <glyph glyph-name="plusminus" unicode="&#xb1;" horiz-adv-x="496" 
d="M44 352h138v139h136v-139h138v-134h-138v-121h-136v121h-138v134zM43 72h426v-64h-426v64z" />
    <glyph glyph-name="acute" unicode="&#xb4;" horiz-adv-x="221" 
d="M195 745l-107 -128l-66 6l68 118z" />
    <glyph glyph-name="cedilla" unicode="&#xb8;" horiz-adv-x="295" 
d="M131 277v-46q22 -5 44 -15.5t40 -26t29 -36t11 -46.5q0 -37 -21.5 -59.5t-53 -35t-68 -17t-66.5 -5.5v91q47 0 71.5 9.5t28.5 21.5t-12 22.5t-51 12.5l-43 3v127h91z" />
    <glyph glyph-name="guillemotright" unicode="&#xbb;" horiz-adv-x="916" 
d="M524 579l344 -183v-136l-322 -211l-99 151l182 119l-190 100zM125 556l344 -183v-136l-322 -211l-99 151l182 119l-190 100z" />
    <glyph glyph-name="questiondown" unicode="&#xbf;" horiz-adv-x="522" 
d="M480.002 24.0459q-71.9961 -10 -131.992 -8.5t-107.993 12.499q-47.9971 11 -83.9951 29.999q-35.998 18.998 -60.9961 42.9971q-51.9971 50.9971 -59.9961 117.993q-3 31.998 4.99902 63.4961q8 31.498 24.999 60.4961q27.998 44.9971 80.4951 81.9951
q52.4971 36.9971 127.492 53.9961v61.9961h179.989v-217.986l-86.9951 -3q-76.9951 -3 -110.993 -25.498q-33.998 -22.499 -29.998 -47.9971q4 -25.499 41.9971 -44.9971q37.998 -19.499 103.994 -16.499q18.999 1 38.9971 2.5q19.999 1.49902 42.998 4.49902zM373.009 776
q20.998 0 38.9971 -7.5q17.999 -7.49902 31.498 -19.999q13.499 -12.499 21.499 -29.998q7.99902 -17.499 7.99902 -37.4971q0 -19.999 -7.99902 -37.498q-8 -17.499 -21.499 -30.498t-31.498 -20.499q-17.999 -7.49902 -38.9971 -7.49902q-20.999 0 -39.498 7.49902
q-18.499 7.5 -31.998 20.499t-21.499 30.498q-7.99902 17.499 -7.99902 37.498q0 19.998 7.99902 37.4971q8 17.499 21.499 29.998q13.499 12.5 31.998 19.999q18.499 7.5 39.498 7.5z" />
    <glyph glyph-name="Agrave" unicode="&#xc0;" 
d="M8 37l199 729h246l150 -710l-174 -36l-25 112h-184l-39 -142zM366 312l-43 203l-55 -203h98zM322 941l68 -118l-66 -6l-106 128z" />
    <glyph glyph-name="Aacute" unicode="&#xc1;" 
d="M8 37l199 729h246l150 -710l-174 -36l-25 112h-184l-39 -142zM366 312l-43 203l-55 -203h98zM439 945l-107 -128l-66 6l68 118z" />
    <glyph glyph-name="Acircumflex" unicode="&#xc2;" 
d="M8 37l199 729h246l150 -710l-174 -36l-25 112h-184l-39 -142zM366 312l-43 203l-55 -203h98zM256 855l71 114h62l53 -120l-63 -24l-27 61l-37 -63z" />
    <glyph glyph-name="Atilde" unicode="&#xc3;" 
d="M8 37l199 729h246l150 -710l-174 -36l-25 112h-184l-39 -142zM366 312l-43 203l-55 -203h98zM207 866l5.5 10t15.5 23t23 26.5t28.5 20t33 3t35.5 -23.5q24 -26 34 -27q7 0 23 30l59 -32q-20 -37 -41.5 -52t-45.5 -13q-22 2 -41 15.5t-38 33.5q-2 2 -7 -4.5t-10 -15.5
q-6 -11 -13 -25z" />
    <glyph glyph-name="Adieresis" unicode="&#xc4;" 
d="M8 37l199 729h246l150 -710l-174 -36l-25 112h-184l-39 -142zM366 312l-43 203l-55 -203h98zM294 830q-13 0 -21.5 8.5t-8.5 21.5t8.5 21.5t21.5 8.5q12 0 20.5 -8.5t8.5 -21.5t-8.5 -21.5t-20.5 -8.5zM369 830q-12 0 -21 8.5t-9 21.5t9 21.5t21 8.5t21 -8.5t9 -21.5
t-9 -21.5t-21 -8.5z" />
    <glyph glyph-name="Aring" unicode="&#xc5;" 
d="M8 37l199 729h246l150 -710l-174 -36l-25 112h-184l-39 -142zM366 312l-43 203l-55 -203h98zM332 966q32 0 55.5 -23t23.5 -56q0 -32 -23.5 -55.5t-55.5 -23.5t-55.5 23.5t-23.5 55.5q0 33 23.5 56t55.5 23zM332 916q-12 0 -20.5 -8.5t-8.5 -20.5t8.5 -20.5t20.5 -8.5
q13 0 21 8.5t8 20.5t-8 20.5t-21 8.5z" />
    <glyph glyph-name="AE" unicode="&#xc6;" horiz-adv-x="774" 
d="M5 37l187 695l545 -8v-178l-237 2v-129h146v-180h-146v-68h231v-179h-412v140h-102l-39 -142zM319 312v199l-54 -199h54z" />
    <glyph glyph-name="Ccedilla" unicode="&#xc7;" horiz-adv-x="654" 
d="M449 505l-6 10t-20.5 21t-38 18t-58.5 3q-47 -6 -73 -40.5t-35.5 -81t-4.5 -96t21 -84.5t42 -57t61 -21q37 1 57.5 17t30.5 34.5t12 34l2 15.5l180 -8l-2 -19.5t-10 -49t-25 -64.5t-47 -65t-76 -51t-111 -23v-15q15 -4 30.5 -11t28 -18.5t20.5 -26t8 -33.5
q0 -26 -15 -42.5t-37.5 -25.5t-48 -12.5t-46.5 -3.5v65q33 0 50.5 7t20.5 15.5t-8.5 16t-36.5 9.5l-30 2v76q-77 13 -130.5 62t-84.5 118q-23 51 -32 110t-4.5 118t23 114t52 100t82.5 75t113 38q56 7 101 -1.5t79 -25.5t58.5 -39t40 -42t22.5 -33.5l7 -13.5z" />
    <glyph glyph-name="Egrave" unicode="&#xc8;" horiz-adv-x="493" 
d="M456 546l-237 2v-129h146v-180h-146v-68h231v-179h-412v735l418 -3v-178zM264 916l68 -118l-66 -6l-106 128z" />
    <glyph glyph-name="Eacute" unicode="&#xc9;" horiz-adv-x="493" 
d="M456 546l-237 2v-129h146v-180h-146v-68h231v-179h-412v735l418 -3v-178zM335 914l-107 -128l-66 6l68 118z" />
    <glyph glyph-name="Ecircumflex" unicode="&#xca;" horiz-adv-x="493" 
d="M456 546l-237 2v-129h146v-180h-146v-68h231v-179h-412v735l418 -3v-178zM166 820l71 114h62l53 -120l-63 -24l-27 61l-37 -63z" />
    <glyph glyph-name="Edieresis" unicode="&#xcb;" horiz-adv-x="493" 
d="M456 546l-237 2v-129h146v-180h-146v-68h231v-179h-412v735l418 -3v-178zM211 784q-13 0 -21.5 8.5t-8.5 21.5t8.5 21.5t21.5 8.5q12 0 20.5 -8.5t8.5 -21.5t-8.5 -21.5t-20.5 -8.5zM286 784q-12 0 -21 8.5t-9 21.5t9 21.5t21 8.5t21 -8.5t9 -21.5t-9 -21.5t-21 -8.5z
" />
    <glyph glyph-name="Igrave" unicode="&#xcc;" horiz-adv-x="263" 
d="M219 700v-702h-180v702h180zM145 889l68 -118l-66 -6l-106 128z" />
    <glyph glyph-name="Iacute" unicode="&#xcd;" horiz-adv-x="263" 
d="M219 700v-702h-180v702h180zM255 885l-107 -128l-66 6l68 118z" />
    <glyph glyph-name="Icircumflex" unicode="&#xce;" horiz-adv-x="263" 
d="M219 700v-702h-180v702h180zM47 788l71 114h62l53 -120l-63 -24l-27 61l-37 -63z" />
    <glyph glyph-name="Idieresis" unicode="&#xcf;" horiz-adv-x="263" 
d="M219 700v-702h-180v702h180zM98 751q-13 0 -21.5 8.5t-8.5 21.5t8.5 21.5t21.5 8.5q12 0 20.5 -8.5t8.5 -21.5t-8.5 -21.5t-20.5 -8.5zM173 751q-12 0 -21 8.5t-9 21.5t9 21.5t21 8.5t21 -8.5t9 -21.5t-9 -21.5t-21 -8.5z" />
    <glyph glyph-name="Eth" unicode="&#xd0;" horiz-adv-x="613" 
d="M221 740q24 -2 65.5 -13t87 -34.5t89.5 -61.5t73 -94q19 -35 28.5 -74t9.5 -78q0 -68 -23.5 -122t-60 -95t-79.5 -70t-82 -47t-69 -26.5t-39 -7.5h-180v723h180zM221 441h106v-109h-106v-116q52 6 89 31.5t57 60t22.5 73.5t-15 72.5t-55.5 56.5t-98 26v-95z" />
    <glyph glyph-name="Ntilde" unicode="&#xd1;" horiz-adv-x="651" 
d="M36 38v646h179l219 -352v368h179v-687h-179l-219 310v-285h-179zM178 777l5.5 10t15.5 23t23 26.5t28.5 20t33 3t35.5 -23.5q24 -26 34 -27q7 0 23 30l59 -32q-20 -37 -41.5 -52t-45.5 -13q-22 2 -41 15.5t-38 33.5q-2 2 -7 -4.5t-10 -15.5q-6 -11 -13 -25z" />
    <glyph glyph-name="Ograve" unicode="&#xd2;" horiz-adv-x="754" 
d="M374 758q73 0 136 -30t111 -84q45 -51 70 -117.5t25 -143.5q0 -75 -25 -142t-70 -117q-48 -54 -111 -84.5t-136 -30.5q-72 0 -134.5 30.5t-110.5 84.5q-45 50 -71 117t-26 142q0 77 26 143.5t71 117.5q48 54 110.5 84t134.5 30zM486 525q-23 24 -51 38t-61 14
q-32 0 -60.5 -14t-49.5 -38q-24 -27 -37.5 -63.5t-13.5 -78.5t13.5 -77.5t37.5 -62.5q21 -25 49.5 -39t60.5 -14q33 0 61 14t51 39q23 27 36.5 62.5t13.5 77.5t-13.5 78.5t-36.5 63.5zM395 941l68 -118l-66 -6l-106 128z" />
    <glyph glyph-name="Oacute" unicode="&#xd3;" horiz-adv-x="754" 
d="M374 758q73 0 136 -30t111 -84q45 -51 70 -117.5t25 -143.5q0 -75 -25 -142t-70 -117q-48 -54 -111 -84.5t-136 -30.5q-72 0 -134.5 30.5t-110.5 84.5q-45 50 -71 117t-26 142q0 77 26 143.5t71 117.5q48 54 110.5 84t134.5 30zM486 525q-23 24 -51 38t-61 14
q-32 0 -60.5 -14t-49.5 -38q-24 -27 -37.5 -63.5t-13.5 -78.5t13.5 -77.5t37.5 -62.5q21 -25 49.5 -39t60.5 -14q33 0 61 14t51 39q23 27 36.5 62.5t13.5 77.5t-13.5 78.5t-36.5 63.5zM506 945l-107 -128l-66 6l68 118z" />
    <glyph glyph-name="Ocircumflex" unicode="&#xd4;" horiz-adv-x="754" 
d="M374 758q73 0 136 -30t111 -84q45 -51 70 -117.5t25 -143.5q0 -75 -25 -142t-70 -117q-48 -54 -111 -84.5t-136 -30.5q-72 0 -134.5 30.5t-110.5 84.5q-45 50 -71 117t-26 142q0 77 26 143.5t71 117.5q48 54 110.5 84t134.5 30zM486 525q-23 24 -51 38t-61 14
q-32 0 -60.5 -14t-49.5 -38q-24 -27 -37.5 -63.5t-13.5 -78.5t13.5 -77.5t37.5 -62.5q21 -25 49.5 -39t60.5 -14q33 0 61 14t51 39q23 27 36.5 62.5t13.5 77.5t-13.5 78.5t-36.5 63.5zM294 830l71 114h62l53 -120l-63 -24l-27 61l-37 -63z" />
    <glyph glyph-name="Otilde" unicode="&#xd5;" horiz-adv-x="754" 
d="M374 758q73 0 136 -30t111 -84q45 -51 70 -117.5t25 -143.5q0 -75 -25 -142t-70 -117q-48 -54 -111 -84.5t-136 -30.5q-72 0 -134.5 30.5t-110.5 84.5q-45 50 -71 117t-26 142q0 77 26 143.5t71 117.5q48 54 110.5 84t134.5 30zM486 525q-23 24 -51 38t-61 14
q-32 0 -60.5 -14t-49.5 -38q-24 -27 -37.5 -63.5t-13.5 -78.5t13.5 -77.5t37.5 -62.5q21 -25 49.5 -39t60.5 -14q33 0 61 14t51 39q23 27 36.5 62.5t13.5 77.5t-13.5 78.5t-36.5 63.5zM247 843l5.5 10t15.5 23t23 26.5t28.5 20t33 3t35.5 -23.5q24 -26 34 -27q7 0 23 30
l59 -32q-20 -37 -41.5 -52t-45.5 -13q-22 2 -41 15.5t-38 33.5q-2 2 -7 -4.5t-10 -15.5q-6 -11 -13 -25z" />
    <glyph glyph-name="Odieresis" unicode="&#xd6;" horiz-adv-x="754" 
d="M374 758q73 0 136 -30t111 -84q45 -51 70 -117.5t25 -143.5q0 -75 -25 -142t-70 -117q-48 -54 -111 -84.5t-136 -30.5q-72 0 -134.5 30.5t-110.5 84.5q-45 50 -71 117t-26 142q0 77 26 143.5t71 117.5q48 54 110.5 84t134.5 30zM486 525q-23 24 -51 38t-61 14
q-32 0 -60.5 -14t-49.5 -38q-24 -27 -37.5 -63.5t-13.5 -78.5t13.5 -77.5t37.5 -62.5q21 -25 49.5 -39t60.5 -14q33 0 61 14t51 39q23 27 36.5 62.5t13.5 77.5t-13.5 78.5t-36.5 63.5zM339 812q-13 0 -21.5 8.5t-8.5 21.5t8.5 21.5t21.5 8.5q12 0 20.5 -8.5t8.5 -21.5
t-8.5 -21.5t-20.5 -8.5zM414 812q-12 0 -21 8.5t-9 21.5t9 21.5t21 8.5t21 -8.5t9 -21.5t-9 -21.5t-21 -8.5z" />
    <glyph glyph-name="multiply" unicode="&#xd7;" horiz-adv-x="465" 
d="M40 190l98 98l-98 98l95 96l99 -99l98 98l95 -95l-98 -98l85 -85l-95 -96l-85 85l-98 -98z" />
    <glyph glyph-name="Oslash" unicode="&#xd8;" horiz-adv-x="754" 
d="M374 758q73 0 136 -30t111 -84q45 -51 70 -117.5t25 -143.5q0 -75 -25 -142t-70 -117q-48 -54 -111 -84.5t-136 -30.5q-72 0 -134.5 30.5t-110.5 84.5q-45 50 -71 117t-26 142q0 77 26 143.5t71 117.5q48 54 110.5 84t134.5 30zM213 383q0 -42 13.5 -77.5t37.5 -62.5
q0 -1 1 -1l118 335h-9q-32 0 -60.5 -14t-49.5 -38q-24 -27 -37.5 -63.5t-13.5 -78.5zM536 383q0 35 -9 65.5t-26 55.5l-111 -313q28 3 52 16.5t44 35.5q23 27 36.5 62.5t13.5 77.5z" />
    <glyph glyph-name="Ugrave" unicode="&#xd9;" horiz-adv-x="644" 
d="M235 690l-4 -22.5t-9 -59.5t-9.5 -84t-6 -95.5t2 -95.5t14.5 -83.5t31 -58.5t52 -21q29 0 49.5 16.5t35 43.5t22.5 62.5t11 73.5q4 50 3 102t-4.5 99t-8.5 85.5t-9 61.5l177 29q4 -26 10 -69t10.5 -95.5t5.5 -112t-5 -117.5q-7 -70 -25 -134.5t-52.5 -113.5t-87.5 -79
t-129 -31q-73 -2 -123 29t-81.5 82t-47 116.5t-20.5 134.5t-2.5 135t8 118t11 84t5.5 33zM311 906l68 -118l-66 -6l-106 128z" />
    <glyph glyph-name="Uacute" unicode="&#xda;" horiz-adv-x="644" 
d="M235 690l-4 -22.5t-9 -59.5t-9.5 -84t-6 -95.5t2 -95.5t14.5 -83.5t31 -58.5t52 -21q29 0 49.5 16.5t35 43.5t22.5 62.5t11 73.5q4 50 3 102t-4.5 99t-8.5 85.5t-9 61.5l177 29q4 -26 10 -69t10.5 -95.5t5.5 -112t-5 -117.5q-7 -70 -25 -134.5t-52.5 -113.5t-87.5 -79
t-129 -31q-73 -2 -123 29t-81.5 82t-47 116.5t-20.5 134.5t-2.5 135t8 118t11 84t5.5 33zM424 906l-107 -128l-66 6l68 118z" />
    <glyph glyph-name="Ucircumflex" unicode="&#xdb;" horiz-adv-x="644" 
d="M235 690l-4 -22.5t-9 -59.5t-9.5 -84t-6 -95.5t2 -95.5t14.5 -83.5t31 -58.5t52 -21q29 0 49.5 16.5t35 43.5t22.5 62.5t11 73.5q4 50 3 102t-4.5 99t-8.5 85.5t-9 61.5l177 29q4 -26 10 -69t10.5 -95.5t5.5 -112t-5 -117.5q-7 -70 -25 -134.5t-52.5 -113.5t-87.5 -79
t-129 -31q-73 -2 -123 29t-81.5 82t-47 116.5t-20.5 134.5t-2.5 135t8 118t11 84t5.5 33zM233 805l71 114h62l53 -120l-63 -24l-27 61l-37 -63z" />
    <glyph glyph-name="Udieresis" unicode="&#xdc;" horiz-adv-x="644" 
d="M235 690l-4 -22.5t-9 -59.5t-9.5 -84t-6 -95.5t2 -95.5t14.5 -83.5t31 -58.5t52 -21q29 0 49.5 16.5t35 43.5t22.5 62.5t11 73.5q4 50 3 102t-4.5 99t-8.5 85.5t-9 61.5l177 29q4 -26 10 -69t10.5 -95.5t5.5 -112t-5 -117.5q-7 -70 -25 -134.5t-52.5 -113.5t-87.5 -79
t-129 -31q-73 -2 -123 29t-81.5 82t-47 116.5t-20.5 134.5t-2.5 135t8 118t11 84t5.5 33zM286 788q-13 0 -21.5 8.5t-8.5 21.5t8.5 21.5t21.5 8.5q12 0 20.5 -8.5t8.5 -21.5t-8.5 -21.5t-20.5 -8.5zM361 788q-12 0 -21 8.5t-9 21.5t9 21.5t21 8.5t21 -8.5t9 -21.5t-9 -21.5
t-21 -8.5z" />
    <glyph glyph-name="Yacute" unicode="&#xdd;" horiz-adv-x="674" 
d="M179 758l164 -271l150 275l158 -86l-216 -396l-2 -277l-179 1l2 279l-232 380zM455 904l-107 -128l-66 6l68 118z" />
    <glyph glyph-name="germandbls" unicode="&#xdf;" horiz-adv-x="541" 
d="M39 -44v540v5q3 46 15 83.5t31 65.5t44 47.5t54 31.5q26 11 53.5 14t54.5 1q53 -8 100 -38q36 -24 60.5 -62.5t34.5 -81.5t4 -86.5t-33 -78.5q29 -39 39.5 -81.5t5.5 -83.5t-25 -79t-51.5 -67.5t-73.5 -49t-91 -23.5l-16 180q40 4 58.5 24t18.5 43.5t-15.5 42.5t-42.5 21
v111q23 2 36.5 16.5t17.5 34t-3 39.5t-25 32q-8 5 -21 7q-9 1 -19 -2q-11 -5 -20 -20.5t-11 -45.5v-22v-518h-180z" />
    <glyph glyph-name="agrave" unicode="&#xe0;" horiz-adv-x="560" 
d="M514 13h-180v17q-63 -11 -114 0t-89 40q-48 37 -71 94.5t-22 118.5t25.5 117.5t70.5 90.5q38 29 87 44.5t102 20.5q35 3 67.5 2t58.5 -3t43.5 -4.5t23.5 -3.5zM334 367q-49 4 -78.5 -10t-41.5 -36t-8.5 -47t20 -42.5t45 -23.5t65.5 10zM335 733l68 -118l-66 -6l-106 128z
" />
    <glyph glyph-name="aacute" unicode="&#xe1;" horiz-adv-x="560" 
d="M514 13h-180v17q-63 -11 -114 0t-89 40q-48 37 -71 94.5t-22 118.5t25.5 117.5t70.5 90.5q38 29 87 44.5t102 20.5q35 3 67.5 2t58.5 -3t43.5 -4.5t23.5 -3.5zM334 367q-49 4 -78.5 -10t-41.5 -36t-8.5 -47t20 -42.5t45 -23.5t65.5 10zM464 733l-107 -128l-66 6l68 118z
" />
    <glyph glyph-name="acircumflex" unicode="&#xe2;" horiz-adv-x="560" 
d="M514 13h-180v17q-63 -11 -114 0t-89 40q-48 37 -71 94.5t-22 118.5t25.5 117.5t70.5 90.5q38 29 87 44.5t102 20.5q35 3 67.5 2t58.5 -3t43.5 -4.5t23.5 -3.5zM334 367q-49 4 -78.5 -10t-41.5 -36t-8.5 -47t20 -42.5t45 -23.5t65.5 10zM261 633l71 114h62l53 -120
l-63 -24l-27 61l-37 -63z" />
    <glyph glyph-name="atilde" unicode="&#xe3;" horiz-adv-x="560" 
d="M514 13h-180v17q-63 -11 -114 0t-89 40q-48 37 -71 94.5t-22 118.5t25.5 117.5t70.5 90.5q38 29 87 44.5t102 20.5q35 3 67.5 2t58.5 -3t43.5 -4.5t23.5 -3.5zM334 367q-49 4 -78.5 -10t-41.5 -36t-8.5 -47t20 -42.5t45 -23.5t65.5 10zM208 650l5.5 10t15.5 23t23 26.5
t28.5 20t33 3t35.5 -23.5q24 -26 34 -27q7 0 23 30l59 -32q-20 -37 -41.5 -52t-45.5 -13q-22 2 -41 15.5t-38 33.5q-2 2 -7 -4.5t-10 -15.5q-6 -11 -13 -25z" />
    <glyph glyph-name="adieresis" unicode="&#xe4;" horiz-adv-x="560" 
d="M514 13h-180v17q-63 -11 -114 0t-89 40q-48 37 -71 94.5t-22 118.5t25.5 117.5t70.5 90.5q38 29 87 44.5t102 20.5q35 3 67.5 2t58.5 -3t43.5 -4.5t23.5 -3.5zM334 367q-49 4 -78.5 -10t-41.5 -36t-8.5 -47t20 -42.5t45 -23.5t65.5 10zM311 616q-13 0 -21.5 8.5
t-8.5 21.5t8.5 21.5t21.5 8.5q12 0 20.5 -8.5t8.5 -21.5t-8.5 -21.5t-20.5 -8.5zM386 616q-12 0 -21 8.5t-9 21.5t9 21.5t21 8.5t21 -8.5t9 -21.5t-9 -21.5t-21 -8.5z" />
    <glyph glyph-name="aring" unicode="&#xe5;" horiz-adv-x="560" 
d="M514 13h-180v17q-63 -11 -114 0t-89 40q-48 37 -71 94.5t-22 118.5t25.5 117.5t70.5 90.5q38 29 87 44.5t102 20.5q35 3 67.5 2t58.5 -3t43.5 -4.5t23.5 -3.5zM334 367q-49 4 -78.5 -10t-41.5 -36t-8.5 -47t20 -42.5t45 -23.5t65.5 10zM378 758q32 0 55.5 -23t23.5 -56
q0 -32 -23.5 -55.5t-55.5 -23.5t-55.5 23.5t-23.5 55.5q0 33 23.5 56t55.5 23zM378 708q-12 0 -20.5 -8.5t-8.5 -20.5t8.5 -20.5t20.5 -8.5q13 0 21 8.5t8 20.5t-8 20.5t-21 8.5z" />
    <glyph glyph-name="ae" unicode="&#xe6;" horiz-adv-x="857" 
d="M507 523q50 25 104.5 24t99.5 -31t74.5 -90.5t30.5 -154.5q0 -20 -1 -41t-5 -43h-288q6 -24 24.5 -34.5t39.5 -10.5t38.5 9t20.5 25l153 -33q-11 -53 -41.5 -89t-71.5 -55t-88.5 -20t-91.5 17v-3h-180v17q-63 -11 -114 0t-89 40q-48 37 -71 94.5t-22 118.5t25.5 117.5
t70.5 90.5q39 29 86 44.5t97 21t101 2t98 -11.5v-4zM313 348q-45 1 -71.5 -13t-37.5 -35t-8 -45t18 -41.5t41 -25t60 4.5zM675 316q1 37 -20.5 59t-49.5 23.5t-54 -19t-32 -66.5z" />
    <glyph glyph-name="ccedilla" unicode="&#xe7;" horiz-adv-x="583" 
d="M352 402q-1 19 -15 29t-33.5 8.5t-40 -16.5t-33.5 -46q-6 -13 -9.5 -32t-4.5 -40t0.5 -43t6.5 -41q9 -39 31.5 -56t46.5 -16.5t43.5 16.5t22.5 44l176 -12q-2 -49 -22 -88.5t-52 -67t-73 -43.5t-86 -19v-12q15 -4 30.5 -11t28 -18.5t20.5 -26t8 -33.5q0 -26 -15 -42.5
t-37.5 -25.5t-48 -12.5t-46.5 -3.5v65q33 0 50.5 7t20.5 15.5t-8.5 16t-36.5 9.5l-30 2v73q-67 12 -112.5 54.5t-70.5 101t-29 127t12 132t52 115t92 76.5q48 22 104 24t106 -17.5t86 -61t43 -105.5z" />
    <glyph glyph-name="egrave" unicode="&#xe8;" horiz-adv-x="541" 
d="M359 316q1 37 -20.5 59t-49.5 23.5t-54 -19t-32 -66.5zM428 187h-222q6 -24 24.5 -34.5t39.5 -10.5t38.5 9t20.5 25l153 -33q-12 -60 -49.5 -98.5t-86.5 -54.5t-103.5 -9t-100 39t-75.5 88.5t-31 140.5q0 66 19.5 118.5t52 90.5t74 60.5t84.5 27.5t85 -8.5t74.5 -47
t53 -88t21.5 -131.5q0 -20 -1 -41t-5 -43h-66zM298 714l68 -118l-66 -6l-106 128z" />
    <glyph glyph-name="eacute" unicode="&#xe9;" horiz-adv-x="541" 
d="M359 316q1 37 -20.5 59t-49.5 23.5t-54 -19t-32 -66.5zM428 187h-222q6 -24 24.5 -34.5t39.5 -10.5t38.5 9t20.5 25l153 -33q-12 -60 -49.5 -98.5t-86.5 -54.5t-103.5 -9t-100 39t-75.5 88.5t-31 140.5q0 66 19.5 118.5t52 90.5t74 60.5t84.5 27.5t85 -8.5t74.5 -47
t53 -88t21.5 -131.5q0 -20 -1 -41t-5 -43h-66zM407 710l-107 -128l-66 6l68 118z" />
    <glyph glyph-name="ecircumflex" unicode="&#xea;" horiz-adv-x="541" 
d="M359 316q1 37 -20.5 59t-49.5 23.5t-54 -19t-32 -66.5zM428 187h-222q6 -24 24.5 -34.5t39.5 -10.5t38.5 9t20.5 25l153 -33q-12 -60 -49.5 -98.5t-86.5 -54.5t-103.5 -9t-100 39t-75.5 88.5t-31 140.5q0 66 19.5 118.5t52 90.5t74 60.5t84.5 27.5t85 -8.5t74.5 -47
t53 -88t21.5 -131.5q0 -20 -1 -41t-5 -43h-66zM206 624l71 114h62l53 -120l-63 -24l-27 61l-37 -63z" />
    <glyph glyph-name="edieresis" unicode="&#xeb;" horiz-adv-x="541" 
d="M359 316q1 37 -20.5 59t-49.5 23.5t-54 -19t-32 -66.5zM428 187h-222q6 -24 24.5 -34.5t39.5 -10.5t38.5 9t20.5 25l153 -33q-12 -60 -49.5 -98.5t-86.5 -54.5t-103.5 -9t-100 39t-75.5 88.5t-31 140.5q0 66 19.5 118.5t52 90.5t74 60.5t84.5 27.5t85 -8.5t74.5 -47
t53 -88t21.5 -131.5q0 -20 -1 -41t-5 -43h-66zM270 603q-13 0 -21.5 8.5t-8.5 21.5t8.5 21.5t21.5 8.5q12 0 20.5 -8.5t8.5 -21.5t-8.5 -21.5t-20.5 -8.5zM345 603q-12 0 -21 8.5t-9 21.5t9 21.5t21 8.5t21 -8.5t9 -21.5t-9 -21.5t-21 -8.5z" />
    <glyph glyph-name="igrave" unicode="&#xec;" horiz-adv-x="269" 
d="M223 541v-510h-180v510h180zM152 710l68 -118l-66 -6l-106 128z" />
    <glyph glyph-name="iacute" unicode="&#xed;" horiz-adv-x="269" 
d="M223 541v-510h-180v510h180zM262 719l-107 -128l-66 6l68 118z" />
    <glyph glyph-name="icircumflex" unicode="&#xee;" horiz-adv-x="269" 
d="M223 541v-510h-180v510h180zM43 625l71 114h62l53 -120l-63 -24l-27 61l-37 -63z" />
    <glyph glyph-name="idieresis" unicode="&#xef;" horiz-adv-x="269" 
d="M223 541v-510h-180v510h180zM101 596q-13 0 -21.5 8.5t-8.5 21.5t8.5 21.5t21.5 8.5q12 0 20.5 -8.5t8.5 -21.5t-8.5 -21.5t-20.5 -8.5zM176 596q-12 0 -21 8.5t-9 21.5t9 21.5t21 8.5t21 -8.5t9 -21.5t-9 -21.5t-21 -8.5z" />
    <glyph glyph-name="eth" unicode="&#xf0;" horiz-adv-x="575" 
d="M240 729h109v49h179v-49h51v-79h-51v-666h-179q-77 -3 -135 22t-96.5 68t-57.5 99t-18.5 114.5t19.5 114.5t57.5 99t96 68t134.5 22v59h-109v79zM349 398q-40 1 -66 -16t-39 -42.5t-12.5 -55.5t13.5 -55t39 -40t65 -12v221z" />
    <glyph glyph-name="ntilde" unicode="&#xf1;" horiz-adv-x="577" 
d="M225 23h-180v533h139q8 5 16 8q56 22 112 23.5t102.5 -19.5t78.5 -65.5t40 -113.5v-8v-346h-179v326q0 47 -21 67.5t-46 18t-45 -26t-17 -63.5v-334zM160 666l5.5 10t15.5 23t23 26.5t28.5 20t33 3t35.5 -23.5q24 -26 34 -27q7 0 23 30l59 -32q-20 -37 -41.5 -52
t-45.5 -13q-22 2 -41 15.5t-38 33.5q-2 2 -7 -4.5t-10 -15.5q-6 -11 -13 -25z" />
    <glyph glyph-name="ograve" unicode="&#xf2;" horiz-adv-x="634" 
d="M318 584q60 0 111.5 -24t89 -64t58.5 -91t21 -105q0 -59 -22.5 -111t-61 -91t-89.5 -62t-107 -23q-60 0 -111.5 24.5t-88.5 65t-58 92t-21 105.5q0 58 22.5 110t61 90.5t89 61t106.5 22.5zM318 405q-21 0 -39.5 -9t-31.5 -24t-20.5 -34t-7.5 -38q0 -21 7.5 -40t21 -34
t31.5 -23.5t39 -8.5q22 0 40.5 9t31.5 24t20.5 34t7.5 39q0 21 -8 40t-21.5 33.5t-32 23t-38.5 8.5zM335 741l68 -118l-66 -6l-106 128z" />
    <glyph glyph-name="oacute" unicode="&#xf3;" horiz-adv-x="634" 
d="M318 584q60 0 111.5 -24t89 -64t58.5 -91t21 -105q0 -59 -22.5 -111t-61 -91t-89.5 -62t-107 -23q-60 0 -111.5 24.5t-88.5 65t-58 92t-21 105.5q0 58 22.5 110t61 90.5t89 61t106.5 22.5zM318 405q-21 0 -39.5 -9t-31.5 -24t-20.5 -34t-7.5 -38q0 -21 7.5 -40t21 -34
t31.5 -23.5t39 -8.5q22 0 40.5 9t31.5 24t20.5 34t7.5 39q0 21 -8 40t-21.5 33.5t-32 23t-38.5 8.5zM416 745l-107 -128l-66 6l68 118z" />
    <glyph glyph-name="ocircumflex" unicode="&#xf4;" horiz-adv-x="634" 
d="M318 584q60 0 111.5 -24t89 -64t58.5 -91t21 -105q0 -59 -22.5 -111t-61 -91t-89.5 -62t-107 -23q-60 0 -111.5 24.5t-88.5 65t-58 92t-21 105.5q0 58 22.5 110t61 90.5t89 61t106.5 22.5zM318 405q-21 0 -39.5 -9t-31.5 -24t-20.5 -34t-7.5 -38q0 -21 7.5 -40t21 -34
t31.5 -23.5t39 -8.5q22 0 40.5 9t31.5 24t20.5 34t7.5 39q0 21 -8 40t-21.5 33.5t-32 23t-38.5 8.5zM224 655l71 114h62l53 -120l-63 -24l-27 61l-37 -63z" />
    <glyph glyph-name="otilde" unicode="&#xf5;" horiz-adv-x="634" 
d="M318 584q60 0 111.5 -24t89 -64t58.5 -91t21 -105q0 -59 -22.5 -111t-61 -91t-89.5 -62t-107 -23q-60 0 -111.5 24.5t-88.5 65t-58 92t-21 105.5q0 58 22.5 110t61 90.5t89 61t106.5 22.5zM318 405q-21 0 -39.5 -9t-31.5 -24t-20.5 -34t-7.5 -38q0 -21 7.5 -40t21 -34
t31.5 -23.5t39 -8.5q22 0 40.5 9t31.5 24t20.5 34t7.5 39q0 21 -8 40t-21.5 33.5t-32 23t-38.5 8.5zM188 666l5.5 10t15.5 23t23 26.5t28.5 20t33 3t35.5 -23.5q24 -26 34 -27q7 0 23 30l59 -32q-20 -37 -41.5 -52t-45.5 -13q-22 2 -41 15.5t-38 33.5q-2 2 -7 -4.5
t-10 -15.5q-6 -11 -13 -25z" />
    <glyph glyph-name="odieresis" unicode="&#xf6;" horiz-adv-x="634" 
d="M318 584q60 0 111.5 -24t89 -64t58.5 -91t21 -105q0 -59 -22.5 -111t-61 -91t-89.5 -62t-107 -23q-60 0 -111.5 24.5t-88.5 65t-58 92t-21 105.5q0 58 22.5 110t61 90.5t89 61t106.5 22.5zM318 405q-21 0 -39.5 -9t-31.5 -24t-20.5 -34t-7.5 -38q0 -21 7.5 -40t21 -34
t31.5 -23.5t39 -8.5q22 0 40.5 9t31.5 24t20.5 34t7.5 39q0 21 -8 40t-21.5 33.5t-32 23t-38.5 8.5zM279 631q-13 0 -21.5 8.5t-8.5 21.5t8.5 21.5t21.5 8.5q12 0 20.5 -8.5t8.5 -21.5t-8.5 -21.5t-20.5 -8.5zM354 631q-12 0 -21 8.5t-9 21.5t9 21.5t21 8.5t21 -8.5t9 -21.5
t-9 -21.5t-21 -8.5z" />
    <glyph glyph-name="divide" unicode="&#xf7;" horiz-adv-x="418" 
d="M36 360h340v-136h-340v136zM207 383q-28 0 -47.5 19.5t-19.5 46.5q0 28 19.5 47t47.5 19q27 0 46 -19t19 -47q0 -27 -19 -46.5t-46 -19.5zM207 65q-28 0 -47.5 19.5t-19.5 46.5q0 28 19.5 47t47.5 19q27 0 46 -19t19 -47q0 -27 -19 -46.5t-46 -19.5z" />
    <glyph glyph-name="oslash" unicode="&#xf8;" horiz-adv-x="634" 
d="M511 629l-35 -96q57 -41 89.5 -103t32.5 -130q0 -59 -22.5 -111t-61 -91t-89.5 -62t-107 -23q-8 0 -15.5 0.5t-15.5 1.5l-29 -81l-127 46l30 84q-57 41 -89.5 104t-32.5 132q0 58 22.5 110t61 90.5t89 61t106.5 22.5q8 0 16 -0.5t16 -1.5l34 93zM219 300q0 -24 11 -48
l53 146q-29 -12 -46.5 -40t-17.5 -58zM418 300q0 23 -11 45l-52 -144q29 13 46 40t17 59z" />
    <glyph glyph-name="ugrave" unicode="&#xf9;" horiz-adv-x="543" 
d="M220 525v-256q1 -47 17 -68t34 -19.5t32 24.5t13 65v242h181l-1 -254q2 -85 -31.5 -144t-84.5 -90.5t-111 -34t-111.5 25.5t-85 87t-32.5 151v271h180zM270 705l68 -118l-66 -6l-106 128z" />
    <glyph glyph-name="uacute" unicode="&#xfa;" horiz-adv-x="543" 
d="M220 525v-256q1 -47 17 -68t34 -19.5t32 24.5t13 65v242h181l-1 -254q2 -85 -31.5 -144t-84.5 -90.5t-111 -34t-111.5 25.5t-85 87t-32.5 151v271h180zM405 719l-107 -128l-66 6l68 118z" />
    <glyph glyph-name="ucircumflex" unicode="&#xfb;" horiz-adv-x="543" 
d="M220 525v-256q1 -47 17 -68t34 -19.5t32 24.5t13 65v242h181l-1 -254q2 -85 -31.5 -144t-84.5 -90.5t-111 -34t-111.5 25.5t-85 87t-32.5 151v271h180zM178 612l71 114h62l53 -120l-63 -24l-27 61l-37 -63z" />
    <glyph glyph-name="udieresis" unicode="&#xfc;" horiz-adv-x="543" 
d="M220 525v-256q1 -47 17 -68t34 -19.5t32 24.5t13 65v242h181l-1 -254q2 -85 -31.5 -144t-84.5 -90.5t-111 -34t-111.5 25.5t-85 87t-32.5 151v271h180zM234 592q-13 0 -21.5 8.5t-8.5 21.5t8.5 21.5t21.5 8.5q12 0 20.5 -8.5t8.5 -21.5t-8.5 -21.5t-20.5 -8.5zM309 592
q-12 0 -21 8.5t-9 21.5t9 21.5t21 8.5t21 -8.5t9 -21.5t-9 -21.5t-21 -8.5z" />
    <glyph glyph-name="yacute" unicode="&#xfd;" horiz-adv-x="576" 
d="M557 559l-128 -490h-1q-1 -5 -10 -31t-28.5 -58.5t-50.5 -64t-76.5 -47.5t-107.5 -9t-142 51l87 157q31 -17 55 -20.5t41 2t28 16.5t18 22.5t9.5 20l2.5 8.5v1l2 5q-53 5 -89.5 20.5t-60.5 37.5t-37.5 47.5t-19.5 49.5t-7.5 44t-0.5 30h-1v208h179v-208q-1 -26 10.5 -43
t28 -19t33.5 12.5t27 50.5l57 217zM426 745l-107 -128l-66 6l68 118z" />
    <glyph glyph-name="ydieresis" unicode="&#xff;" horiz-adv-x="576" 
d="M557 559l-128 -490h-1q-1 -5 -10 -31t-28.5 -58.5t-50.5 -64t-76.5 -47.5t-107.5 -9t-142 51l87 157q31 -17 55 -20.5t41 2t28 16.5t18 22.5t9.5 20l2.5 8.5v1l2 5q-53 5 -89.5 20.5t-60.5 37.5t-37.5 47.5t-19.5 49.5t-7.5 44t-0.5 30h-1v208h179v-208q-1 -26 10.5 -43
t28 -19t33.5 12.5t27 50.5l57 217zM265 622q-13 0 -21.5 8.5t-8.5 21.5t8.5 21.5t21.5 8.5q12 0 20.5 -8.5t8.5 -21.5t-8.5 -21.5t-20.5 -8.5zM340 622q-12 0 -21 8.5t-9 21.5t9 21.5t21 8.5t21 -8.5t9 -21.5t-9 -21.5t-21 -8.5z" />
    <glyph glyph-name="dotlessi" unicode="&#x131;" horiz-adv-x="269" 
d="M223 541v-510h-180v510h180z" />
    <glyph glyph-name="OE" unicode="&#x152;" horiz-adv-x="834" 
d="M797 546l-237 2v-129h146v-180h-146v-68h231v-179h-412v2h-3q-73 0 -136 30t-111 83q-45 49 -71.5 114.5t-26.5 139.5q0 75 26.5 140t71.5 116q48 53 111 82.5t136 29.5q21 0 42 -3l379 -2v-178zM265 224q21 -25 50 -38.5t61 -13.5h3v379h-3q-32 0 -61 -13.5t-50 -37.5
q-24 -26 -37.5 -61.5t-13.5 -77.5q0 -41 13.5 -76t37.5 -61z" />
    <glyph glyph-name="oe" unicode="&#x153;" horiz-adv-x="943" 
d="M315 560q62 0 114 -25t90 -67q33 35 74 55t83.5 23.5t82.5 -11t71.5 -48t51 -87.5t20.5 -129q0 -20 -1 -41t-5 -43h-288q6 -24 24.5 -34.5t39.5 -10.5t38.5 9t20.5 25l153 -33q-9 -45 -33 -78.5t-57.5 -54t-73 -28t-79.5 -1.5t-77 26t-65 55q-38 -34 -85 -53.5t-99 -19.5
q-60 0 -111.5 24.5t-88.5 65t-58 92t-21 105.5q0 58 22.5 110t61 90.5t89 61t106.5 22.5zM315 381q-21 0 -39.5 -9t-31.5 -24t-20.5 -34t-7.5 -38q0 -21 7.5 -40t21 -34t31.5 -23.5t39 -8.5q22 0 40.5 9t31.5 24t20.5 34t7.5 39q0 21 -8 40t-21.5 33.5t-32 23t-38.5 8.5z
M761 316q1 37 -20.5 59t-49.5 23.5t-54 -19t-32 -66.5z" />
    <glyph glyph-name="Ydieresis" unicode="&#x178;" horiz-adv-x="674" 
d="M179 758l164 -271l150 275l158 -86l-216 -396l-2 -277l-179 1l2 279l-232 380zM311 777q-13 0 -21.5 8.5t-8.5 21.5t8.5 21.5t21.5 8.5q12 0 20.5 -8.5t8.5 -21.5t-8.5 -21.5t-20.5 -8.5zM386 777q-12 0 -21 8.5t-9 21.5t9 21.5t21 8.5t21 -8.5t9 -21.5t-9 -21.5
t-21 -8.5z" />
    <glyph glyph-name="circumflex" unicode="&#x2c6;" horiz-adv-x="245" 
d="M33 655l71 114h62l53 -120l-63 -24l-27 61l-37 -63z" />
    <glyph glyph-name="ring" unicode="&#x2da;" horiz-adv-x="229" 
d="M110 780q32 0 55.5 -23t23.5 -56q0 -32 -23.5 -55.5t-55.5 -23.5t-55.5 23.5t-23.5 55.5q0 33 23.5 56t55.5 23zM110 730q-12 0 -20.5 -8.5t-8.5 -20.5t8.5 -20.5t20.5 -8.5q13 0 21 8.5t8 20.5t-8 20.5t-21 8.5z" />
    <glyph glyph-name="tilde" unicode="&#x2dc;" horiz-adv-x="311" 
d="M24 666l5.5 10t15.5 23t23 26.5t28.5 20t33 3t35.5 -23.5q24 -26 34 -27q7 0 23 30l59 -32q-20 -37 -41.5 -52t-45.5 -13q-22 2 -41 15.5t-38 33.5q-2 2 -7 -4.5t-10 -15.5q-6 -11 -13 -25z" />
    <glyph glyph-name="quoteleft" unicode="&#x2018;" horiz-adv-x="246" 
d="M44 750h82l70 -228h-133z" />
    <glyph glyph-name="quoteright" unicode="&#x2019;" horiz-adv-x="246" 
d="M63 750h133l-70 -228h-82z" />
    <glyph glyph-name="quotesinglbase" unicode="&#x201a;" horiz-adv-x="289" 
d="M63 154h179l-116 -228h-82z" />
    <glyph glyph-name="quotedblleft" unicode="&#x201c;" horiz-adv-x="404" 
d="M44 750h82l70 -228h-133zM212 750h82l70 -228h-133z" />
    <glyph glyph-name="quotedblright" unicode="&#x201d;" horiz-adv-x="404" 
d="M63 750h133l-70 -228h-82zM231 750h133l-70 -228h-82z" />
    <glyph glyph-name="quotedblbase" unicode="&#x201e;" horiz-adv-x="497" 
d="M63 154h179l-116 -228h-82zM279 154h179l-116 -228h-82z" />
    <glyph glyph-name="ellipsis" unicode="&#x2026;" horiz-adv-x="757" 
d="M138 6q-31 0 -52.5 21.5t-21.5 51.5q0 31 21.5 52.5t52.5 21.5t52.5 -21.5t21.5 -52.5q0 -30 -21.5 -51.5t-52.5 -21.5zM383 6q-31 0 -52.5 21.5t-21.5 51.5q0 31 21.5 52.5t52.5 21.5t52.5 -21.5t21.5 -52.5q0 -30 -21.5 -51.5t-52.5 -21.5zM627 6q-31 0 -52.5 21.5
t-21.5 51.5q0 31 21.5 52.5t52.5 21.5t52.5 -21.5t21.5 -52.5q0 -30 -21.5 -51.5t-52.5 -21.5z" />
    <glyph glyph-name="perthousand" unicode="&#x2030;" horiz-adv-x="1120" 
d="M599 668l-254 -665l-169 65l255 664zM185 729q31 0 58 -12t47 -32t31.5 -47t11.5 -58t-11.5 -58t-31.5 -47t-47 -31.5t-58 -11.5t-58 11.5t-47.5 31.5t-32 47t-11.5 58t11.5 58t32 47t47.5 32t58 12zM185 634q-23 0 -39 -15.5t-16 -38.5t16 -39t39 -16t38.5 16t15.5 39
t-15.5 38.5t-38.5 15.5zM605 299q31 0 58 -12t47.5 -32t32 -47t11.5 -58t-11.5 -58t-32 -47t-47.5 -31.5t-58 -11.5t-58 11.5t-47.5 31.5t-32 47t-11.5 58t11.5 58t32 47t47.5 32t58 12zM605 205q-23 0 -38.5 -16t-15.5 -39t15.5 -39t38.5 -16t39 16t16 39t-16 39t-39 16z
M933 299q31 0 58 -12t47.5 -32t32 -47t11.5 -58t-11.5 -58t-32 -47t-47.5 -31.5t-58 -11.5t-58 11.5t-47.5 31.5t-32 47t-11.5 58t11.5 58t32 47t47.5 32t58 12zM933 205q-23 0 -38.5 -16t-15.5 -39t15.5 -39t38.5 -16t39 16t16 39t-16 39t-39 16z" />
    <glyph glyph-name="guilsinglleft" unicode="&#x2039;" horiz-adv-x="525" 
d="M477 419l-190 -100l182 -119l-99 -151l-322 211v136l344 183z" />
    <glyph glyph-name="guilsinglright" unicode="&#x203a;" horiz-adv-x="525" 
d="M133 579l344 -183v-136l-322 -211l-99 151l182 119l-190 100z" />
    <glyph glyph-name="Euro" unicode="&#x20ac;" horiz-adv-x="362" 
d="M335 506q-14 -3 -27 -11q-11 -7 -24 -20t-23 -34h68v-95h-86v-3v-9h86v-97h-69q3 -8 8.5 -18t13 -19t16.5 -16t19 -8v-180q-11 0 -28.5 3t-39 11.5t-44.5 22t-45 34.5q-28 28 -51.5 69.5t-35.5 100.5h-43v97h33v9v3h-33v95h43q11 53 32.5 92t47.5 65.5t53 43t49 26
t36.5 12.5l14.5 3z" />
    <glyph glyph-name="trademark" unicode="&#x2122;" horiz-adv-x="524" 
d="M149 691v-206h-66v206l-56 1v66l169 -1v-67zM215 488l17 268l74 -2l48 -146l43 147l71 6l18 -268l-66 -4l-6 89l-37 -92h-43l-46 111l-7 -112z" />
    </font>
</defs>
</svg>
